<svg width="101" height="17" viewBox="0 0 101 17" fill="none" xmlns="http://www.w3.org/2000/svg">
<path d="M28.3638 0.296387H31.9912V7.3055H32.026L36.0423 0.296387H39.8438L35.1427 8.0634L40.1514 15.8646H35.9088L32.026 9.13471H31.9912V15.8646H28.3638V0.296387Z" fill="white"/>
<path d="M49.0312 0.296387H45.4038V15.8703H49.0312V0.296387Z" fill="white"/>
<path d="M61.0134 4.838C60.938 4.31374 60.8219 3.32221 59.7076 3.32221C59.075 3.32221 58.4597 3.80658 58.4597 4.54168C58.4597 5.46483 58.8428 5.65858 61.3965 6.91794C64.0489 8.22289 64.7163 9.57342 64.7163 11.3798C64.7163 13.6535 63.5265 16.1552 59.7598 16.1552C55.6507 16.1552 54.635 13.209 54.635 11.2089V10.7131H58.245C58.245 12.5195 59.2607 12.8386 59.725 12.8386C60.5898 12.8386 61.1063 12.058 61.1063 11.3456C61.1063 10.3142 60.5085 10.0578 58.3205 9.04916C57.3222 8.61038 54.8439 7.51058 54.8439 4.58727C54.8439 1.66395 57.4383 0 59.8178 0C61.2166 0 62.7372 0.569847 63.66 1.76652C64.5074 2.90052 64.5596 3.95474 64.6002 4.838H61.0134V4.838Z" fill="white"/>
<path d="M72.943 0.296387L74.8408 10.4169H74.8815L76.9766 0.296387H79.7567L81.8113 10.4568H81.8519L83.7904 0.296387H87.4584L83.6975 15.8646H80.5054L78.3754 5.78401H78.3347L76.2047 15.8646H72.9197L69.2517 0.296387H72.943Z" fill="white"/>
<path d="M92.9187 0.296387H100.812V3.78955H96.3952V6.2057H100.678V9.69886H96.3952V12.3714H100.812V15.8646H92.9187V0.296387Z" fill="white"/>
<path d="M16.1347 15.8651L12.2577 9.1352H12.2171V15.8651H0V0.296875H12.2171V7.30029H12.2577L16.274 0.296875H20.3831V15.8651H16.1347Z" fill="white"/>
</svg>
